<?xml version="1.0" encoding="us-ascii" standalone="no"?><svg xmlns="http://www.w3.org/2000/svg" xmlns:xlink="http://www.w3.org/1999/xlink" contentStyleType="text/css" height="183px" preserveAspectRatio="none" style="width:260px;height:183px;background:#FFFFFF;" version="1.1" viewBox="0 0 260 183" width="260px" zoomAndPan="magnify"><defs/><g><!--class Connection--><g id="elem_Connection"><rect codeLine="5" fill="#F1F1F1" height="162.0781" id="Connection" rx="2.5" ry="2.5" style="stroke:#181818;stroke-width:0.5;" width="239" x="7" y="7"/><ellipse cx="82.25" cy="23" fill="#ADD1B2" rx="11" ry="11" style="stroke:#181818;stroke-width:1.0;"/><path d="M85.2188,28.6406 Q84.6406,28.9375 84,29.0781 Q83.3594,29.2344 82.6563,29.2344 Q80.1563,29.2344 78.8281,27.5938 Q77.5156,25.9375 77.5156,22.8125 Q77.5156,19.6875 78.8281,18.0313 Q80.1563,16.375 82.6563,16.375 Q83.3594,16.375 84,16.5313 Q84.6563,16.6875 85.2188,16.9844 L85.2188,19.7031 Q84.5938,19.125 84,18.8594 Q83.4063,18.5781 82.7813,18.5781 Q81.4375,18.5781 80.75,19.6563 Q80.0625,20.7188 80.0625,22.8125 Q80.0625,24.9063 80.75,25.9844 Q81.4375,27.0469 82.7813,27.0469 Q83.4063,27.0469 84,26.7813 Q84.5938,26.5 85.2188,25.9219 L85.2188,28.6406 Z " fill="#000000"/><text fill="#000000" font-family="JetBrains Mono" font-size="14" lengthAdjust="spacing" textLength="80" x="102.75" y="27.8467">Connection</text><line style="stroke:#181818;stroke-width:0.5;" x1="8" x2="245" y1="39" y2="39"/><text fill="#000000" font-family="JetBrains Mono" font-size="14" lengthAdjust="spacing" textLength="72" x="13" y="55.9951">-int sockfd</text><line style="stroke:#181818;stroke-width:0.5;" x1="8" x2="245" y1="63.2969" y2="63.2969"/><text fill="#000000" font-family="JetBrains Mono" font-size="14" lengthAdjust="spacing" textLength="102" x="13" y="80.292">+Connection()</text><text fill="#000000" font-family="JetBrains Mono" font-size="14" lengthAdjust="spacing" textLength="114" x="13" y="96.5889">+~Connection()</text><text fill="#000000" font-family="JetBrains Mono" font-size="14" lengthAdjust="spacing" textLength="4" x="13" y="112.8857">&#160;</text><text fill="#000000" font-family="JetBrains Mono" font-size="14" lengthAdjust="spacing" textLength="210" x="13" y="129.1826">+int initConnection(int epollfd)</text><text fill="#000000" font-family="JetBrains Mono" font-size="14" lengthAdjust="spacing" textLength="146" x="13" y="145.4795">+int getConnection()</text><text fill="#000000" font-family="JetBrains Mono" font-size="14" lengthAdjust="spacing" textLength="227" x="13" y="161.7764">+int closeConnection(int epollfd)</text></g><!--SRC=[TOn12i9034NtSueiBI9u1HK41Ttq1EDCHaAdIMdIZQ9drob5AcYMxxyyROWxt_iMGlQg6xEUBeFX8GZNT4DOE_qe4PCViks5xUnRX2FQjlV42YTXSMvCm4wOCHW9mzt1-rP0RA0IcXJTI9OpQL5DwFd59bW-YSbcMq7OISufLZFhYlOZMfQGHV5VuE5U]--></g></svg>